<svg xmlns="http://www.w3.org/2000/svg" viewBox="0 0 46.66 49.72"><defs><style>.cls-1{stroke:#009fe3;}.cls-1,.cls-2{stroke-miterlimit:10;}.cls-2,.cls-3{fill:none;}.cls-2{stroke:#3abde4;stroke-width:7.09px;}.cls-4,.cls-5,.cls-6,.cls-7{isolation:isolate;}.cls-5,.cls-6{font-size:12px;}.cls-5{fill:#fff;}.cls-5,.cls-6,.cls-7{font-family:BerlinSansFBDemi-Bold, Berlin Sans FB Demi;font-weight:700;}.cls-7{font-size:24px;}.cls-8{fill:#3abde4;}</style></defs><g id="Capa_2" data-name="Capa 2"><g id="Capa_1-2" data-name="Capa 1"><path class="cls-1" d="M.5,24.85A21.31,21.31,0,0,1,21.81,3.54V46.17A21.31,21.31,0,0,1,.5,24.85Z"/><path class="cls-2" d="M43.12,24.85A21.31,21.31,0,0,0,21.81,3.54V46.17A21.31,21.31,0,0,0,43.12,24.85Z"/><rect class="cls-3" x="0.73" y="13.33" width="42.17" height="18.66"/><g class="cls-4"><text class="cls-5" transform="translate(4.8 30.26)">To</text><text class="cls-6" transform="translate(17.48 30.26)"> </text><text class="cls-7" transform="translate(20.48 30.26)"><tspan xml:space="preserve">  </tspan></text><text class="cls-6" transform="translate(32.48 30.26)">o</text></g><path class="cls-8" d="M27.68,27.31c0,.65,0,1.31,0,2a6.52,6.52,0,0,0,.11,1.82.79.79,0,0,0,.79.56.91.91,0,0,0,.77-.58,15.15,15.15,0,0,0,.54-1.65A13.81,13.81,0,0,1,33,24.27c.64-.65-.36-1.65-1-1a13.77,13.77,0,0,0-2.32,3.2,21.15,21.15,0,0,0-.91,2c-.14.34-.26.69-.38,1.05-.06.18-.12.36-.17.54s-.09.36-.11.38l.5-.21h-.06l.5.21L29,30.4l.18.31a2.82,2.82,0,0,1,0-.68c0-.3,0-.61,0-.91,0-.61,0-1.21,0-1.82a.71.71,0,0,0-1.41,0Z"/></g></g></svg>